<svg xmlns="http://www.w3.org/2000/svg" version="1.1" xmlns:xlink="http://www.w3.org/1999/xlink" xmlns:svgjs="http://svgjs.dev/svgjs" width="1500" height="1500" viewBox="0 0 1500 1500"><rect width="1500" height="1500" fill="#ffffff"></rect><g transform="matrix(0.6666666666666666,0,0,0.6666666666666666,249.39393939393938,549.2220132256269)"><svg viewBox="0 0 396 159" data-background-color="#ffffff" preserveAspectRatio="xMidYMid meet" height="602" width="1500" xmlns="http://www.w3.org/2000/svg" xmlns:xlink="http://www.w3.org/1999/xlink"><g id="tight-bounds" transform="matrix(1,0,0,1,0.2400000000000091,0.04410273370095297)"><svg viewBox="0 0 395.52 158.9117945325981" height="158.9117945325981" width="395.52"><g><svg viewBox="0 0 397.4975999999999 159.70635350526106" height="158.9117945325981" width="395.52"><g><rect width="397.4975999999999" height="4.891594673404886" x="0" y="87.76759111344263" fill="#000000" opacity="1" stroke-width="0" stroke="transparent" fill-opacity="1" class="rect-qz-0" data-fill-palette-color="secondary" rx="1%" id="qz-0" data-palette-color="#dedede"></rect></g><g transform="matrix(1,0,0,1,0.9887999999999693,105.46440744497549)"><svg viewBox="0 0 395.52 54.241946060285564" height="54.241946060285564" width="395.52"><g id="textblocktransform"><svg viewBox="0 0 395.52 54.241946060285564" height="54.241946060285564" width="395.52" id="textblock"><g><svg viewBox="0 0 395.52 54.241946060285564" height="54.241946060285564" width="395.52"><g transform="matrix(1,0,0,1,0,0)"><svg width="395.52" viewBox="1.49 -37.5 278.53999999999996 37.99" height="54.241946060285564" data-palette-color="#19c880"><g class="wordmark-text-0" data-fill-palette-color="primary" id="text-0"><path d="M6.18-35.55L11.79-11.21 12.48-6.52 13.48-10.74 20.51-35.55 24.46-35.55 31.32-10.74 32.3-6.45 33.06-11.23 38.57-35.55 43.29-35.55 34.67 0 30.4 0 23.07-25.9 22.51-28.61 21.95-25.9 14.36 0 10.08 0 1.49-35.55 6.18-35.55ZM68.82 0L64.08 0Q63.69-0.78 63.45-2.78L63.45-2.78Q60.3 0.49 55.93 0.49L55.93 0.49Q52.02 0.49 49.52-1.72 47.02-3.93 47.02-7.32L47.02-7.32Q47.02-11.45 50.16-13.73 53.29-16.02 58.98-16.02L58.98-16.02 63.38-16.02 63.38-18.09Q63.38-20.46 61.96-21.86 60.54-23.27 57.79-23.27L57.79-23.27Q55.37-23.27 53.73-22.05 52.1-20.83 52.1-19.09L52.1-19.09 47.56-19.09Q47.56-21.07 48.96-22.91 50.36-24.76 52.77-25.83 55.17-26.9 58.05-26.9L58.05-26.9Q62.62-26.9 65.21-24.62 67.8-22.34 67.89-18.33L67.89-18.33 67.89-6.18Q67.89-2.54 68.82-0.39L68.82-0.39 68.82 0ZM56.59-3.44L56.59-3.44Q58.71-3.44 60.62-4.54 62.52-5.64 63.38-7.4L63.38-7.4 63.38-12.82 59.84-12.82Q51.54-12.82 51.54-7.96L51.54-7.96Q51.54-5.83 52.95-4.64 54.37-3.44 56.59-3.44ZM76.58-32.81L81.1-32.81 81.1-26.42 86.03-26.42 86.03-22.92 81.1-22.92 81.1-6.54Q81.1-4.96 81.76-4.16 82.42-3.37 84-3.37L84-3.37Q84.79-3.37 86.15-3.66L86.15-3.66 86.15 0Q84.37 0.49 82.69 0.49L82.69 0.49Q79.66 0.49 78.12-1.34 76.58-3.17 76.58-6.54L76.58-6.54 76.58-22.92 71.77-22.92 71.77-26.42 76.58-26.42 76.58-32.81ZM101.9-3.2L101.9-3.2Q104.31-3.2 106.12-4.66 107.93-6.13 108.12-8.33L108.12-8.33 112.39-8.33Q112.27-6.05 110.83-4 109.39-1.95 106.99-0.73 104.58 0.49 101.9 0.49L101.9 0.49Q96.5 0.49 93.32-3.11 90.13-6.71 90.13-12.96L90.13-12.96 90.13-13.72Q90.13-17.58 91.55-20.58 92.96-23.58 95.61-25.24 98.26-26.9 101.87-26.9L101.87-26.9Q106.32-26.9 109.26-24.24 112.2-21.58 112.39-17.33L112.39-17.33 108.12-17.33Q107.93-19.9 106.18-21.55 104.44-23.19 101.87-23.19L101.87-23.19Q98.43-23.19 96.54-20.72 94.65-18.24 94.65-13.55L94.65-13.55 94.65-12.7Q94.65-8.13 96.53-5.66 98.41-3.2 101.9-3.2ZM121.99-37.5L121.99-23.22Q124.99-26.9 129.8-26.9L129.8-26.9Q138.17-26.9 138.25-17.46L138.25-17.46 138.25 0 133.73 0 133.73-17.48Q133.71-20.34 132.42-21.7 131.14-23.07 128.43-23.07L128.43-23.07Q126.24-23.07 124.57-21.9 122.91-20.73 121.99-18.82L121.99-18.82 121.99 0 117.47 0 117.47-37.5 121.99-37.5ZM147.77-35.55L153.38-11.21 154.06-6.52 155.07-10.74 162.1-35.55 166.05-35.55 172.91-10.74 173.89-6.45 174.65-11.23 180.16-35.55 184.88-35.55 176.26 0 171.98 0 164.66-25.9 164.1-28.61 163.54-25.9 155.94 0 151.67 0 143.08-35.55 147.77-35.55ZM188.17-13.13L188.17-13.45Q188.17-17.33 189.69-20.43 191.22-23.54 193.94-25.22 196.66-26.9 200.16-26.9L200.16-26.9Q205.55-26.9 208.88-23.17 212.22-19.43 212.22-13.23L212.22-13.23 212.22-12.92Q212.22-9.06 210.74-5.99 209.26-2.93 206.52-1.22 203.77 0.49 200.2 0.49L200.2 0.49Q194.83 0.49 191.5-3.25 188.17-6.98 188.17-13.13L188.17-13.13ZM192.71-12.92L192.71-12.92Q192.71-8.52 194.75-5.86 196.79-3.2 200.2-3.2L200.2-3.2Q203.65-3.2 205.67-5.9 207.7-8.59 207.7-13.45L207.7-13.45Q207.7-17.8 205.64-20.5 203.57-23.19 200.16-23.19L200.16-23.19Q196.81-23.19 194.76-20.53 192.71-17.87 192.71-12.92ZM230.65-26.56L230.65-22.36Q229.62-22.53 228.42-22.53L228.42-22.53Q223.98-22.53 222.39-18.75L222.39-18.75 222.39 0 217.88 0 217.88-26.42 222.27-26.42 222.35-23.36Q224.57-26.9 228.64-26.9L228.64-26.9Q229.96-26.9 230.65-26.56L230.65-26.56ZM251.37 0L242.17-12.23 239.34-9.28 239.34 0 234.82 0 234.82-37.5 239.34-37.5 239.34-14.82 241.75-17.72 249.98-26.42 255.47-26.42 245.19-15.38 256.67 0 251.37 0ZM275.51-7.01L275.51-7.01Q275.51-8.84 274.14-9.85 272.76-10.86 269.33-11.6 265.9-12.33 263.88-13.35 261.87-14.38 260.9-15.8 259.94-17.21 259.94-19.17L259.94-19.17Q259.94-22.41 262.69-24.66 265.43-26.9 269.7-26.9L269.7-26.9Q274.2-26.9 276.99-24.58 279.79-22.27 279.79-18.65L279.79-18.65 275.25-18.65Q275.25-20.51 273.67-21.85 272.1-23.19 269.7-23.19L269.7-23.19Q267.24-23.19 265.85-22.12 264.46-21.04 264.46-19.31L264.46-19.31Q264.46-17.68 265.75-16.85 267.04-16.02 270.42-15.26 273.81-14.5 275.91-13.45 278-12.4 279.02-10.93 280.03-9.45 280.03-7.32L280.03-7.32Q280.03-3.78 277.2-1.65 274.37 0.49 269.85 0.49L269.85 0.49Q266.68 0.49 264.24-0.63 261.79-1.76 260.41-3.77 259.04-5.79 259.04-8.13L259.04-8.13 263.55-8.13Q263.67-5.86 265.37-4.53 267.07-3.2 269.85-3.2L269.85-3.2Q272.41-3.2 273.96-4.24 275.51-5.27 275.51-7.01Z" fill="#000000" data-fill-palette-color="primary"></path></g></svg></g></svg></g></svg></g></svg></g><g transform="matrix(1,0,0,1,157.64413956328448,0)"><svg viewBox="0 0 82.20932087343094 74.96236945531466" height="74.96236945531466" width="82.20932087343094"><g><svg xmlns="http://www.w3.org/2000/svg" xmlns:xlink="http://www.w3.org/1999/xlink" version="1.1" x="8" y="0" viewBox="8.56 7.775 79.363 89.85499999999999" enable-background="new 0 0 96.484 106.161" xml:space="preserve" height="74.96236945531466" width="66.20932087343094" class="icon-icon-0" data-fill-palette-color="accent" id="icon-0"><path d="M57.454 38.712l-1.332-0.93-9.033 12.935c-0.022-0.001-0.044-0.007-0.067-0.007-0.262 0-0.504 0.072-0.719 0.188l-11.917-6.668-0.793 1.417 11.915 6.668c0.028 0.505 0.299 0.942 0.702 1.197v17.16h1.624V53.513c0.424-0.27 0.708-0.74 0.708-1.28 0-0.209-0.042-0.407-0.119-0.588L57.454 38.712z" fill="#000000" data-fill-palette-color="accent"></path><rect x="46.552" y="25.581" width="0.812" height="3.525" fill="#000000" data-fill-palette-color="accent"></rect><rect x="19.855" y="52.296" width="3.527" height="0.812" fill="#000000" data-fill-palette-color="accent"></rect><rect x="70.344" y="52.296" width="3.527" height="0.812" fill="#000000" data-fill-palette-color="accent"></rect><rect x="46.552" y="76.429" width="0.812" height="3.525" fill="#000000" data-fill-palette-color="accent"></rect><g fill="#19c880" data-fill-palette-color="accent"><path d="M84.833 46.297c-0.586-3.929-1.795-7.652-3.515-11.075l1.29-0.817-5.138-7.598-1.282 0.759c-2.847-3.28-6.257-6.057-10.087-8.172V7.775H27.741v12.07C16.307 26.165 8.56 38.34 8.56 52.329c0 13.988 7.747 26.164 19.181 32.484V97.63h38.361V84.209c3.512-1.939 6.674-4.432 9.37-7.361l1.47 1.224 5.655-7.221-1.75-1.548c1.566-2.913 2.747-6.062 3.49-9.376h3.586V46.297H84.833zM46.921 82.329c-16.384 0-29.666-13.281-29.666-29.664 0-16.384 13.282-29.666 29.666-29.666 16.383 0 29.665 13.282 29.665 29.666C76.586 69.048 63.305 82.329 46.921 82.329z" fill="#000000" data-fill-palette-color="accent"></path></g></svg></g></svg></g><g><rect width="81.11101956328451" height="4.891594673404886" y="69.07077478190978" x="239.8534604367154" fill="#000000" data-fill-palette-color="secondary"></rect><rect width="81.11101956328451" height="4.891594673404886" y="69.07077478190978" x="76.53311999999997" fill="#000000" data-fill-palette-color="secondary"></rect></g></svg></g><defs></defs></svg><rect width="395.52" height="158.9117945325981" fill="none" stroke="none" visibility="hidden"></rect></g></svg></g></svg>